<svg width="75" height="186" viewBox="0 0 75 186" fill="none" xmlns="http://www.w3.org/2000/svg">
<path d="M49.7209 19.839L37.4536 7.57173L25.1863 19.839L21.4004 16.0532L37.4536 0L53.5068 16.0532L49.7209 19.839Z" fill="#3596F5"/>
<path d="M0 111.761C0 123.103 5.618 130.523 16.96 130.523C28.408 130.523 34.026 123.103 34.026 111.761V73.495C34.026 62.153 28.408 54.839 16.96 54.839C5.618 54.839 0 62.153 0 73.495V111.761ZM8.162 73.071C8.162 66.287 11.024 62.259 16.96 62.259C23.002 62.259 25.758 66.287 25.758 73.071V112.291C25.758 118.969 23.002 122.997 16.96 122.997C11.024 122.997 8.162 118.969 8.162 112.291V73.071Z" fill="#635854"/>
<path d="M47.5592 129.781H55.8272L74.9072 62.789V55.581H41.3052V63.001H66.5332L47.5592 129.781Z" fill="#635854"/>
<path d="M49.7209 165.523L37.4536 177.79L25.1863 165.523L21.4004 169.309L37.4536 185.362L53.5068 169.309L49.7209 165.523Z" fill="#3596F5"/>
</svg>
